<svg xmlns="http://www.w3.org/2000/svg" width="48" height="48" fill="none" viewBox="0 0 48 48"><defs><linearGradient id="bg" x1="0" y1="0" x2="48" y2="48"><stop offset="0%" stop-color="#1d4ed8"/><stop offset="100%" stop-color="#002C76"/></linearGradient></defs><rect width="48" height="48" rx="12" fill="url(#bg)"/><path fill="#fff" fill-rule="evenodd" d="M24 10c-2.5 0-4.5 2-4.5 4.5v3h-3A2.5 2.5 0 0 0 14 20v14a2.5 2.5 0 0 0 2.5 2.5h15A2.5 2.5 0 0 0 34 34V20a2.5 2.5 0 0 0-2.5-2.5h-3v-3C28.5 12 26.5 10 24 10zm3 7.5v-3a3 3 0 0 0-6 0v3h6z" clip-rule="evenodd"/></svg>
